ply
format ascii 1.0
comment Exported by Aspose.3D 21.11
element vertex 208
property float x
property float y
property float z
property float nx
property float ny
property float nz
element face 412
property list uchar int vertex_index
end_header
5.539737701416016 1.0100507985555396E-08 -3.768954277038574 -0.2733723975941363 0.14840933978557588 0.17833272372460868
4.307949066162109 1.0100507985555396E-08 -3.812735080718994 -0.2338141968416768 0.33706657215952873 0.27961768616936145
1.4385390281677246 0 -1.2008659839630127 -2.5711140397722404E-09 1 -2.3919628777679947E-09
4.038570404052734 0 -1.2143789529800415 -0.5137345313984655 0.2901471138000488 -0.2876321784670536
4.144052505493164 -1.0100507985555396E-08 -4.801568031311035 -0.2892034755415713 0.11277313828468323 0.3161352057830531
3.0128326416015625 -1.0100507985555396E-08 -4.785861968994141 -0.19379215932616048 0.507128880918026 0.21855868276966828
2.848937511444092 -1.0100507985555396E-08 -5.774698257446289 -0.2390996217727661 0.03725439868867397 0.3718602992594242
0.7940382361412048 -1.0100507985555396E-08 -4.081137180328369 0.2981382209046953 0.46189772871245316 0.39586537963988483
-0.21283257007598877 0 5.97490119934082 -0.30359419290650114 0.7001486378056662 -0.1988313793879556
-2.8338401317596436 0 -1.001983642578125 0.10060543599611141 0.7433470329851843 0.34937510816653494
3.7718191146850586 1.2970737218856812 -3.505237102508545 -0.48557701520621777 -0.6160242383678753 0.4593463192383448
2.964740037918091 1.4384828805923462 -4.217257022857666 -0.5080619510263205 -0.5519341143469015 0.48072444150845206
2.2245020866394043 1.5681806802749634 -4.870308876037598 -0.07605469822883607 -0.4831040218472481 0.5805917918682099
4.605422496795654 1.1513396501541138 -2.7690935134887695 -0.6686455085873604 -0.4972667023539543 -0.039773859083652496
0.09539926052093506 3.3968539237976074 -3.4936861991882324 -0.11942209489643574 0.2892684287362499 0.6485326364636421
2.7977235317230225 3.4090933799743652 -0.01561535894870758 -0.6607129673163096 -0.22239031725459626 0.07250332004494137
4.924706935882568 6.819678783416748 -1.4140911102294922 -0.8000492283276148 0.15769100402082714 0.24086096244198935
1.0640406608581543 6.538822650909424 -6.094392776489258 -0.4650963023304939 0.10836733132600784 0.7342405368884404
2.8062686920166016 6.911485195159912 9.701879501342773 -0.6337694483143942 0.22754751252276556 -0.529500269464084
-7.318575382232666 7.251114845275879 -8.181732177734375 -0.0031726649031043053 0.2642026413232088 0.8513109162449837
-7.332892894744873 3.0354528427124023 -4.468502044677734 -0.0024626627564430237 0.7048731545607249 0.6927389899889628
-7.347628116607666 1.0100507985555396E-08 -0.345043420791626 -0.0005030927488661047 0.9505505189299583 0.14763195071017515
-4.992513656616211 0 8.669659614562988 -0.39008138540976034 0.5039338767528534 -0.2138417030484889
-7.404200077056885 6.717683792114258 15.154013633728027 0.0028222898642222085 0.31389662623405457 -0.7732228537400563
-7.390336513519287 25.343040466308594 11.355588912963867 0.002491156260172526 -0.0313648705681165 -0.8609679142634074
1.1565039157867432 25.503311157226562 6.769886493682861 -0.7462293973990849 0.04807058934654508 -0.4828688481024333
-7.392985820770264 30.5969181060791 12.96951675415039 0.0036171029011408487 0.11863623807827631 -0.8502317865689595
2.378038167953491 29.987548828125 7.6097540855407715 -0.7773537933826447 0.018010140396654606 -0.4360991381108761
-7.389394283294678 43.67512512207031 10.209547996520996 0.009189452975988388 -0.44090697914361954 -0.6552402426799138
1.112534523010254 44.13511276245117 5.337115287780762 0.02242287714034319 -0.3339652996510267 -0.4919649064540863
-6.560344219207764 0 24.63984489440918 -0.31881680463751155 0.6184975703557332 -0.3125273982683817
-5.476238250732422 3.887028455734253 27.080623626708984 -0.48527272907085717 0.17653038104375202 -0.5054073457916577
-4.129376411437988 5.779599189758301 20.06145668029785 -0.4567226618528366 -0.14980160764285497 0.27636549515383585
-6.155192852020264 8.632037162780762 24.991884231567383 -0.4984876854966084 -0.10504257678985596 -0.5457124089201291
-4.831219673156738 10.245267868041992 17.723888397216797 -0.46859116782434285 -0.02428579330444336 0.3753952160477638
-5.734872817993164 14.934714317321777 29.086515426635742 -0.4937672790450354 0.20126786082983017 -0.5271361693739891
-4.065323352813721 17.045087814331055 20.01374053955078 -0.4790261133263508 0.10780419285098711 0.35038675119479495
-6.355258941650391 21.455392837524414 28.509244918823242 -0.4838499006970475 0.042936804393927254 -0.5608603383104006
-4.1438093185424805 24.428382873535156 15.594003677368164 -0.49728955181005097 -0.08323973417282104 0.3389010926087697
-6.044722080230713 32.74365234375 36.033565521240234 -0.3243386211421845 0.014995686709880829 -0.5825850119193394
-3.6801445484161377 42.62986755371094 27.997072219848633 -0.32871472653156764 -0.35773688803116477 -0.029969180623690285
-7.395068645477295 3.473820447921753 12.652241706848145 1.2656052907307942E-05 -0.39747280875841773 -0.003435283899307251
3.251845121383667 19.26946258544922 -0.05765753984451294 -0.8952603737513224 -0.025616267696022987 -0.16771273563305536
2.1559605598449707 25.289112091064453 2.247480869293213 -0.7139553214822496 -0.01816441970212119 0.060285142489842
4.7848944664001465 21.355615615844727 -4.558351039886475 -0.43795510828495027 -0.33093834295868874 0.24143044948577883
4.747806549072266 15.678834915161133 -4.044467926025391 -0.6984778046607971 0.2791366670280695 0.25387151539325714
-1.4058301448822021 17.677410125732422 -8.681398391723633 -0.1391092911362648 -0.3400857994953791 0.6911037663618723
0.4003453850746155 13.588382720947266 -7.063436031341553 -0.2405077451840043 0.413742003031075 0.8125145882368088
-4.5693840980529785 17.07099151611328 -8.806928634643555 0.1332744943598906 -0.17846092085043588 0.7066653619209925
-4.459775447845459 15.255915641784668 -8.170642852783203 0.2425939951624189 0.3403596878051758 0.6889189524309975
-4.120596885681152 14.155172348022461 -7.75019645690918 0.14962135361773626 0.370760474886213 0.6931037264210836
-3.8058340549468994 13.126703262329102 -7.357590198516846 0.11526975333690644 0.5276066780090333 0.7578562140464783
-7.3424811363220215 46.87800216674805 -1.7553491592407227 0.005330466975768407 -0.8744876682758331 0.06555354098478952
-0.2655029892921448 45.5533561706543 -0.7516306638717651 -0.10896498816353933 -0.5249560454062053 0.47309326274054386
-1.0803728103637695 31.96344757080078 -8.5756254196167 -0.4187239468097687 -0.2683691635727882 0.6622633039951324
-7.308155536651611 32.68837356567383 -11.159799575805664 -0.0012714788317680359 -0.2964745871722698 0.6928520798683167
-7.31207799911499 28.53654670715332 -10.085269927978516 -0.0017169192433357239 0.3979816635449727 0.815690000851949
0.29666373133659363 28.770904541015625 -7.294125080108643 -0.5106287747621536 0.36183321103453636 0.6110103825728098
-7.327550411224365 24.956140518188477 -5.84606409072876 -0.002282815674940745 0.45087192207574844 0.7355040212472279
-1.8959708213806152 25.367368698120117 -4.169862270355225 -0.43204358220100403 0.14607385452836752 0.6990512162446976
-1.2515029907226562 37.201290130615234 -5.247500896453857 0.06798887848854065 0.18326946794986726 0.7524077236652374
-3.65372633934021 37.27755355834961 -6.376677513122559 -0.35300029069185257 0.3056900352239609 0.8817609995603561
-3.66827130317688 34.978965759277344 -5.650331974029541 -0.4620762646198273 -0.023099419474601746 0.5936987131834031
-1.256279706954956 34.58340072631836 -4.414837837219238 0.028691157698631287 -0.3848319798707962 0.37859453819692135
-7.411454677581787 10.409960746765137 17.763484954833984 -0.0033208488651628914 0.18304956952730814 0.9096545875072479
-7.421849727630615 5.611808776855469 19.989561080932617 -0.00216464139521122 -0.26929715275764465 0.5929732024669647
-7.422491550445557 17.050918579101562 20.16524887084961 -0.0033190694181636595 -0.04210624098777771 0.9094037612279255
-7.402475833892822 24.353391647338867 15.512045860290527 -0.003073683551823099 0.16219767928123474 0.8421911696592966
-7.451021671295166 42.640167236328125 27.981887817382812 -0.00010023881077358965 -0.597122810781002 0.025283493101596832
-4.881967544555664 14.516863822937012 -7.9586710929870605 0.4096473418176174 0.0757158100605011 0.5479789450764656
-5.154750823974609 16.01243019104004 -8.509577751159668 0.5562098938971758 0.06169024854898453 0.48432140052318573
-4.509460926055908 13.743653297424316 -7.648805618286133 0.3678674064576626 -0.01627880334854126 0.6499447673559189
0.8022664785385132 21.358762741088867 -3.523404598236084 -0.1552348405122757 -0.619831258058548 0.5904873967170715
-1.0794792175292969 20.261789321899414 -4.688925266265869 -0.060836538672447205 -0.5600673228502274 0.6876931071281434
0.40537601709365845 12.146639823913574 -5.4461517333984375 -0.4970387846231461 0.34149899780750276 0.6062329828739167
2.6661510467529297 13.08307933807373 -2.447883129119873 -0.7438339233398438 0.09729115366935731 0.32242825627326965
-4.887556552886963 18.927928924560547 -5.9369707107543945 0.16695205618937808 -0.33829767505327857 0.6886884818474451
-3.7089955806732178 12.1737642288208 -6.55117130279541 -0.14385732635855675 0.1638885010033846 0.85731640458107
-5.9917120933532715 16.04570960998535 -6.647190570831299 0.2211285630861918 0.09926248838504155 0.6368389626344044
-5.477914810180664 13.787569999694824 -6.819143295288086 0.0953114777803421 0.04727798203627268 0.7652935087680817
-5.360450267791748 15.40822696685791 -6.560156345367432 0.20325321952501932 -0.10640024145444234 0.7041169007619221
-5.890127658843994 14.691280364990234 -6.8079328536987305 0.09199881056944528 0.12552286187807718 0.656863863269488
-5.070531368255615 14.22498893737793 -6.644486904144287 0.12421821057796478 -0.11439149330059686 0.7242735972007115
-7.324408054351807 18.302906036376953 -6.706908702850342 -0.0034836120903491974 -0.13163414224982262 0.9544188752770424
-7.323161602020264 15.838820457458496 -7.0484619140625 -0.0034874876340230303 -0.1329428181052208 0.9554907878239949
-7.321927547454834 13.399503707885742 -7.3865838050842285 -0.0034886499245961504 -0.13261486341555911 0.9558070600032806
-7.321089267730713 11.74256420135498 -7.616257190704346 -0.003488980233669281 -0.12648917362093925 0.9564040899276733
-7.3228535652160645 15.228946685791016 -7.132997989654541 -0.0034879744052886963 -0.13265245656172434 0.9556309580802917
-7.322489261627197 14.509994506835938 -7.232655048370361 -0.0034882227579752603 -0.13274506231149036 0.9556855658690134
-7.322288990020752 14.11423110961914 -7.287513732910156 -0.0034883866707483926 -0.13278948764006296 0.9557279646396637
-7.4388747215271 0 24.654293060302734 0.0015432867799921868 0.7666041627526283 -0.4229319094601508
-7.4480719566345215 4.010531902313232 27.173620223999023 0.003242360505585869 -0.097394660115242 -0.8881351550420125
2.3069262504577637 49.24819564819336 0.08777877688407898 0.33824868127703667 -0.3426288490494092 0.3512617101271947
2.89168381690979 47.07275390625 6.301509380340576 0.46569471806287766 -0.25573705285787585 -0.547861522436142
5.2509565353393555 43.694244384765625 5.681879997253418 -0.35153742134571075 0.34702035625066074 -0.5654576752733971
5.527352809906006 43.76205825805664 -0.4219322204589844 -0.47091838965813315 0.1974794790148735 0.472495062276721
2.6556756496429443 40.68851089477539 -1.3202202320098877 -0.7044065349868366 0.045548622097287855 0.34057066037452643
1.801985740661621 39.75940704345703 4.293036460876465 -0.7163900062441826 0.11246170848608017 -0.29431852428242566
4.095365047454834 29.019275665283203 -1.7114698886871338 -0.7893185516198475 0.22352701425552368 0.250299297273159
3.737267255783081 31.882001876831055 -1.5868704319000244 -0.9151408553123475 -0.11791818141937256 0.12310123443603516
-0.11418771743774414 40.927005767822266 -5.271675109863281 -0.4404570524181638 -0.28532144533736364 0.7774655435766492
-7.320008754730225 40.94530487060547 -7.912378311157227 -0.0017895996570587158 -0.4334214460104704 0.8007127270102501
-7.314791202545166 33.73753356933594 -9.341828346252441 -0.0023837114373842874 -0.40217992911736167 0.7690176392594973
0.047017812728881836 32.473052978515625 -6.856034278869629 -0.6403514929115772 -0.22526923660188913 0.6355448290705681
5.861135482788086 53.47808837890625 1.6399167776107788 0.4059871807694435 -0.5048569117983182 0.13534930845101673
6.85459566116333 52.71553039550781 5.761014461517334 0.07032405336697896 -0.2205191571265459 -0.7373282412687937
8.320417404174805 48.87849807739258 5.42295503616333 -0.690449205537637 0.25392660064001876 -0.33925274693562335
8.509175300598145 48.89519500732422 1.068752408027649 -0.44548138976097107 -0.02780742694934209 0.6186160147190094
8.980488777160645 55.74445724487305 3.165864944458008 0.024754101037979127 -0.6525685667991639 0.32520634531974796
9.483841896057129 55.74445724487305 4.570985317230225 0.24602556228637695 -0.6273104604333639 -0.36505525559186935
10.229668617248535 55.74445724487305 4.314857006072998 -0.3280210494995117 -0.374862152338028 -0.37569273482076826
10.231610298156738 55.74445724487305 3.5147504806518555 -0.5469708442687988 -0.18537763506174088 0.22130551567533985
-0.2831886410713196 39.128135681152344 -5.667731761932373 -0.13034654557704925 0.029368853569030764 0.8793513178825378
-0.2202407717704773 34.22280502319336 -6.632165908813477 0.011633892144475664 -0.24897044258458273 0.7089647193040166
-4.0323896408081055 34.7099494934082 -7.922213077545166 -0.41150179505348206 -0.46749795973300934 0.4474107131361962
-3.894432306289673 38.999114990234375 -6.999287128448486 -0.42577974285398207 -0.02006079043660845 0.8089052523885454
-7.438042163848877 8.677460670471191 25.047372817993164 0.0031445828887323537 0.22557648022969562 -0.8615037302176157
-7.455090045928955 14.903179168701172 29.0965633392334 0.00344351880873243 0.12207706396778424 -0.9433607558409373
-7.449881076812744 21.485111236572266 28.499631881713867 0.0032351188516865173 0.3400868810713291 -0.8863141934076945
-7.4804253578186035 32.73868179321289 36.0377311706543 0.0029314482053450774 -0.03729677200317383 -0.8032434731721878
-20.20965576171875 -1.0100507985555396E-08 -3.862938404083252 0.27206377831859624 0.14844433069229127 0.18035079529307732
-18.7271785736084 1.0100507985555396E-08 -1.2974727153778076 0.5158214092452883 0.2901651054620743 -0.28388266722045313
-16.1273136138916 1.0100507985555396E-08 -1.2649815082550049 -1.040320617845536E-09 1 -2.1476033867928734E-09
-18.977581024169922 -1.0100507985555396E-08 -3.897726535797119 0.2317724471143599 0.3370872065424919 0.281319554973262
-18.806472778320312 0 -4.885336875915527 0.2868815863058473 0.1127847969532013 0.31825278797866674
-17.675397872924805 0 -4.861373424530029 0.1921914572281209 0.5071280121803284 0.21996756968076095
-15.461807250976562 0 -4.140470504760742 -0.30106422245309195 0.46189593481055147 0.3936411728070919
-17.504287719726562 0 -5.848987102508545 0.23635965585708618 0.037241291254758835 0.373604241758585
-14.528369903564453 1.0100507985555396E-08 5.92264986038208 0.3050372901103362 0.7001470753124782 -0.19660983571815038
-11.856123924255371 0 -1.0326449871063232 -0.10313685312358337 0.7433981437934563 0.3485622197913921
-17.631454467773438 1.4384784698486328 -4.292431354522705 0.5045150214185317 -0.5519202748934428 0.484486681719621
-18.443754196166992 1.2971538305282593 -3.5863490104675293 0.4822005219757557 -0.615977461139361 0.4629640306035677
-16.886425018310547 1.568098545074463 -4.940037250518799 0.07179461717605591 -0.483094897121191 0.5811917126178742
-19.282758712768555 1.1515089273452759 -2.8563380241394043 0.6689133644104004 -0.49720994755625725 -0.03483150154352188
-14.767523765563965 3.3972437381744385 -3.5477495193481445 0.11461096629500389 0.2893961515801493 0.6492736376821995
-17.49545669555664 3.4094529151916504 -0.0904444083571434 0.660158356030782 -0.2223688546154234 0.07740261654059091
-15.717390060424805 6.537313938140869 -6.157342910766602 0.45963286608457565 0.10840034236510594 0.7374686002731323
-19.611833572387695 6.819678783416748 -1.5036488771438599 0.7984365820884705 0.1578700031552996 0.24735984631947108
-17.57459831237793 6.911485195159912 9.627490043640137 0.6373987368174961 0.22794572370392935 -0.5250313920634133
-9.768484115600586 0 8.652227401733398 0.39163203356042686 0.503933952914344 -0.21098841457745654
-15.936548233032227 25.493473052978516 6.715139865875244 0.7513749897480011 0.04265933909586497 -0.4730420559644699
-17.085195541381836 29.99744415283203 7.535857677459717 0.7820274233818054 0.015406502410769463 -0.4312310926616192
-15.764883041381836 43.846038818359375 5.300316333770752 -0.009312612004578114 -0.17755222599953413 -0.48009816370904446
-10.714759826660156 5.779599189758301 20.03742027282715 0.45460487263543264 -0.1500757655927113 0.27963954742465696
-9.419173240661621 3.887028455734253 27.06623077392578 0.4889000772188107 0.1763634905219078 -0.5018805029491583
-8.317276954650879 0 24.63343620300293 0.32108842705686885 0.6184971133867899 -0.310192068417867
-9.991333961486816 10.245267868041992 17.705053329467773 0.465759337816659 -0.024248532950878143 0.3788237149516741
-8.720451354980469 8.632037162780762 24.982521057128906 0.5023432836557428 -0.10527895142634709 -0.5420858487486839
-10.778464317321777 17.045087814331055 19.989238739013672 0.4763940988729397 0.10759734983245531 0.3538355380296707
-9.175188064575195 14.934714317321777 29.073957443237305 0.4975532678266366 0.20131795356671014 -0.5234968264897664
-10.661654472351074 24.428382873535156 15.570215225219727 0.4946025879471563 -0.08242807413140932 0.34221386909484863
-8.544544219970703 21.455392837524414 28.501253128051758 0.48787544628915686 0.042708067844311394 -0.5573571001489956
-11.292462348937988 42.62986755371094 27.96902847290039 0.32859868032392114 -0.3559575080871582 -0.028164640069007874
-8.916059494018555 32.74365234375 36.02308654785156 0.3284277640438328 0.015958225975433983 -0.5804830566048622
-17.94891929626465 19.26946258544922 -0.1350397765636444 0.8967587351799011 -0.02839407262702783 -0.158200333515803
-16.836814880371094 25.2989501953125 2.1705141067504883 0.7133735993078777 -0.020405530397381102 0.06674714812210628
-19.41573715209961 15.678834915161133 -4.132664203643799 0.6966059903303782 0.27913657141228515 0.25896364947160083
-19.449071884155273 21.355615615844727 -4.646804332733154 0.4359038293361664 -0.3316035769879818 0.2446328103542328
-15.046353340148926 13.588382720947266 -7.119815826416016 0.23457014188170433 0.41374193830415606 0.8142486438155174
-13.228414535522461 17.677410125732422 -8.724550247192383 0.13406064609686533 -0.3400858634461959 0.692100832859675
-10.838139533996582 13.126703262329102 -7.383257865905762 -0.12079893648624421 0.5276067316532135 0.7569945812225343
-10.520519256591797 14.155172348022461 -7.773556232452393 -0.15467693869556698 0.37076041102409363 0.6919931130749838
-10.178279876708984 15.255915641784668 -8.19151496887207 -0.24761659332684108 0.34035965374537874 0.687129693371909
-10.0640287399292 17.07099151611328 -8.826984405517578 -0.13842956349253654 -0.17846072713534036 0.7056735455989838
-14.186281204223633 45.610145568847656 -0.5914990901947021 0.05411200757537569 -0.44923532434872215 0.4738183915615082
-13.534256935119629 31.960472106933594 -8.606538772583008 0.41545544266700746 -0.26670849323272705 0.6665152430534363
-14.914589881896973 28.766878128051758 -7.331016540527344 0.5047063554326693 0.3628191314637661 0.6188183128833771
-12.771220207214355 25.367368698120117 -4.209556579589844 0.42582840472459793 0.1466385880485177 0.7023917473852634
-13.407806396484375 37.201290130615234 -5.291871070861816 -0.07347954511642456 0.18326939940452577 0.7518914699554444
-13.409106254577637 34.58340072631836 -4.459195613861084 -0.03145404905080795 -0.38483206927776337 0.37837511859834194
-10.988160133361816 34.978965759277344 -5.67704963684082 0.4577299684286118 -0.02309935917146504 0.5970558285713196
-10.997403144836426 37.27755355834961 -6.403481960296631 0.34655411541461945 0.3056899979710579 0.8843143731355667
-9.757646560668945 14.516863822937012 -7.976467132568359 -0.413636626675725 0.07571572810411453 0.5449739322066307
-9.480849266052246 16.01243019104004 -8.525367736816406 -0.5597307309508324 0.061690494418144226 0.48024821281433105
-10.132405281066895 13.743653297424316 -7.6693291664123535 -0.37260217033326626 -0.01627865433692932 0.6472421139478683
-13.583903312683105 20.261789321899414 -4.7345662117004395 0.05581489801406861 -0.5600674211978912 0.6881188511848451
-15.474105834960938 21.358762741088867 -3.582812786102295 0.1509868532419205 -0.619749441742897 0.5915549397468567
-17.345792770385742 13.08307933807373 -2.520925998687744 0.7414703845977784 0.0972429782152176 0.32782575488090515
-15.063190460205078 12.146639823913574 -5.5026116371154785 0.49258802831172943 0.3414105534553528 0.6098413288593293
-9.766815185546875 18.927928924560547 -5.954780101776123 -0.17197506874799728 -0.3382975682616234 0.6874513725439707
-10.940861701965332 12.1737642288208 -6.5775675773620605 0.1375716794282198 0.1638494599610567 0.8583439067006111
-8.65750503540039 16.04570960998535 -6.656920433044434 -0.2257715066274007 0.09926244616508484 0.6352077970902125
-9.17003345489502 13.787569999694824 -6.8326191902160645 -0.10089545448621114 0.047278016805648804 0.7645774086316426
-9.289385795593262 15.40822696685791 -6.574496746063232 -0.20838771760463715 -0.1064003159602483 0.7026143272717793
-9.578680992126465 14.22498893737793 -6.6609416007995605 -0.12950203816095987 -0.11439150323470433 0.723347619175911
-8.757913589477539 14.691280364990234 -6.818399906158447 -0.0967913269996643 0.12552287181218463 0.6561747739712397
-15.398160934448242 47.229148864746094 6.227327823638916 -0.5300552651286126 0.032793023437261586 -0.5276598811149598
-13.922661781311035 48.65272903442383 -0.08634091913700104 -0.4602633357668916 -0.0754059354464213 0.3776514033476511
-18.72284698486328 45.87976837158203 5.664664268493652 0.47776459689651213 0.16878271528652736 -0.5871469367827687
-16.430835723876953 39.67168045043945 4.127840995788574 0.7844803839921952 0.05029283910989762 -0.30961902588605883
-17.34775161743164 40.80702590942383 -1.5011614561080933 0.7370218951255083 -0.05594411492347717 0.3269038370677403
-19.166872024536133 45.890106201171875 -0.4390060305595398 0.5043936781585217 -0.0281448724369208 0.4559402695546547
-18.8426456451416 29.013023376464844 -1.8092619180679321 0.7822404702504475 0.2315865159034729 0.2564732084671656
-18.528133392333984 31.894546508789062 -1.6633315086364746 0.9086728811264039 -0.11758023649454118 0.12411065697669983
-14.571514129638672 40.930904388427734 -5.343406677246094 0.4135412265147481 -0.29168313103062765 0.7808778413704462
-14.683560371398926 32.471439361572266 -6.901971817016602 0.6336725428700447 -0.22057623323053122 0.6464887522161007
-16.094457626342773 54.92843246459961 5.721722602844238 -0.14165927718083063 -0.15771991883714992 -0.7208385144670804
-15.006014823913574 55.11521911621094 1.5195685625076294 -0.5859022047370672 -0.2534072548151016 0.1520735720793406
-19.285432815551758 51.91676330566406 1.0198299884796143 0.3988338752339283 -0.2011443016429742 0.6142181325703859
-19.01856803894043 51.83681869506836 5.33174991607666 0.7445980757474899 -0.06829904578626156 -0.369429566587011
-17.434431076049805 58.87421417236328 4.4803056716918945 -0.3564281724393368 -0.4861011356115341 -0.3679502485319972
-17.096628189086914 58.951324462890625 3.1394143104553223 -0.09406574070453644 -0.60550936460495 0.3166710417717695
-18.274829864501953 58.83985900878906 3.296628952026367 0.5565150566399097 -0.3959452863782644 0.19252698170021176
-18.17064666748047 58.85861587524414 4.230950832366943 0.351072171330452 -0.49955375492572784 -0.4010437283664942
-14.428933143615723 34.22280502319336 -6.684027194976807 -0.030630495931421007 -0.24759746875081742 0.7106981905443327
-14.373025894165039 39.128135681152344 -5.719159126281738 0.10214976817369462 0.03191358745098114 0.8840300917625428
-10.752159118652344 38.999114990234375 -7.024317741394043 0.4196208672864096 -0.01705984295611935 0.8126070840018136
-10.607468605041504 34.7099494934082 -7.946211814880371 0.4082247853279114 -0.4674979500938207 0.4504025384783745
3 0 1 2
3 2 3 0
3 1 4 2
3 4 5 2
3 5 6 7
3 7 2 5
3 3 2 8
3 8 2 9
3 2 7 9
3 4 1 10
3 10 11 4
3 5 4 11
3 6 5 11
3 11 12 6
3 1 0 10
3 10 0 13
3 7 6 12
3 12 14 7
3 9 7 14
3 3 8 15
3 3 15 13
3 13 0 3
3 11 10 15
3 12 11 15
3 10 13 15
3 14 12 15
3 14 15 16
3 16 17 14
3 15 8 18
3 18 16 15
3 14 17 19
3 19 20 14
3 20 9 14
3 9 20 21
3 18 8 22
3 22 23 18
3 24 25 18
3 18 23 24
3 25 24 26
3 26 27 25
3 27 26 28
3 28 29 27
3 22 30 31
3 31 32 22
3 32 31 33
3 33 34 32
3 34 33 35
3 35 36 34
3 36 35 37
3 37 38 36
3 38 37 39
3 39 40 38
3 23 22 41
3 22 32 41
3 25 42 16
3 16 18 25
3 25 43 42
3 42 43 44
3 44 45 42
3 45 44 46
3 46 47 45
3 47 46 48
3 47 48 49
3 47 49 50
3 47 50 51
3 29 28 52
3 52 53 29
3 54 55 56
3 56 57 54
3 57 56 58
3 58 59 57
3 60 61 62
3 62 63 60
3 32 34 64
3 64 65 32
3 66 64 34
3 34 36 66
3 36 38 67
3 67 66 36
3 38 40 68
3 68 67 38
3 32 65 41
3 49 69 50
3 49 48 70
3 50 71 51
3 46 44 72
3 72 73 46
3 45 47 74
3 74 75 45
3 48 46 73
3 73 76 48
3 47 51 77
3 77 74 47
3 70 48 76
3 76 78 70
3 51 71 79
3 79 77 51
3 49 70 78
3 78 80 49
3 50 69 81
3 81 82 50
3 71 50 82
3 82 79 71
3 69 49 80
3 80 81 69
3 44 43 72
3 45 75 42
3 78 76 83
3 83 84 78
3 77 79 85
3 85 86 77
3 80 78 84
3 84 87 80
3 82 81 88
3 88 89 82
3 79 82 89
3 89 85 79
3 81 80 87
3 87 88 81
3 77 86 19
3 17 74 77
3 77 19 17
3 76 73 59
3 83 76 59
3 59 58 83
3 75 74 17
3 17 16 75
3 42 75 16
3 59 73 72
3 72 43 59
3 21 22 8
3 8 9 21
3 31 30 90
3 90 91 31
3 29 53 92
3 92 93 29
3 94 95 96
3 96 97 94
3 29 93 94
3 94 97 29
3 95 92 53
3 53 96 95
3 59 43 98
3 98 57 59
3 99 27 97
3 97 96 99
3 97 27 29
3 100 96 53
3 27 98 43
3 43 25 27
3 98 27 99
3 53 52 101
3 101 100 53
3 102 55 54
3 54 103 102
3 96 100 103
3 103 99 96
3 93 92 104
3 104 105 93
3 95 94 106
3 106 107 95
3 92 95 107
3 107 104 92
3 94 93 105
3 105 106 94
3 104 108 109
3 109 105 104
3 106 110 111
3 111 107 106
3 107 111 108
3 108 104 107
3 105 109 110
3 110 106 105
3 100 112 113
3 113 103 100
3 102 114 115
3 115 101 102
3 100 101 115
3 115 112 100
3 102 103 113
3 113 114 102
3 113 112 60
3 60 63 113
3 112 115 61
3 61 60 112
3 115 114 62
3 62 61 115
3 114 113 63
3 63 62 114
3 35 33 116
3 116 117 35
3 37 35 117
3 117 118 37
3 39 37 118
3 118 119 39
3 68 40 39
3 39 119 68
3 33 31 91
3 91 116 33
3 90 30 22
3 22 21 90
3 57 98 103
3 103 54 57
3 99 103 98
3 110 109 108
3 108 111 110
3 120 121 122
3 122 123 120
3 123 122 124
3 124 122 125
3 125 122 126
3 126 127 125
3 121 128 122
3 128 129 122
3 122 129 126
3 124 130 131
3 131 123 124
3 125 130 124
3 127 132 130
3 130 125 127
3 123 131 120
3 131 133 120
3 126 134 132
3 132 127 126
3 129 134 126
3 121 135 128
3 121 120 133
3 133 135 121
3 130 135 131
3 132 135 130
3 131 135 133
3 134 135 132
3 134 136 137
3 137 135 134
3 135 137 138
3 138 128 135
3 134 20 19
3 19 136 134
3 20 134 129
3 129 21 20
3 138 23 139
3 139 128 138
3 24 23 138
3 138 140 24
3 140 141 26
3 26 24 140
3 141 142 28
3 28 26 141
3 139 143 144
3 144 145 139
3 143 146 147
3 147 144 143
3 146 148 149
3 149 147 146
3 148 150 151
3 151 149 148
3 150 152 153
3 153 151 150
3 23 41 139
3 139 41 143
3 140 138 137
3 137 154 140
3 140 154 155
3 154 156 157
3 157 155 154
3 156 158 159
3 159 157 156
3 158 160 161
3 158 161 162
3 158 162 163
3 158 163 159
3 142 164 52
3 52 28 142
3 165 166 56
3 56 55 165
3 166 167 58
3 58 56 166
3 168 169 170
3 170 171 168
3 143 65 64
3 64 146 143
3 66 148 146
3 146 64 66
3 148 66 67
3 67 150 148
3 150 67 68
3 68 152 150
3 143 41 65
3 162 161 172
3 162 173 163
3 161 160 174
3 159 175 176
3 176 157 159
3 156 177 178
3 178 158 156
3 163 179 175
3 175 159 163
3 158 178 180
3 180 160 158
3 173 181 179
3 179 163 173
3 160 180 182
3 182 174 160
3 162 183 181
3 181 173 162
3 161 184 185
3 185 172 161
3 174 182 184
3 184 161 174
3 172 185 183
3 183 162 172
3 157 176 155
3 156 154 177
3 181 84 83
3 83 179 181
3 180 86 85
3 85 182 180
3 183 87 84
3 84 181 183
3 184 89 88
3 88 185 184
3 182 85 89
3 89 184 182
3 185 88 87
3 87 183 185
3 180 19 86
3 136 19 180
3 180 178 136
3 179 167 175
3 83 58 167
3 167 179 83
3 177 137 136
3 136 178 177
3 154 137 177
3 167 155 176
3 176 175 167
3 21 129 128
3 128 139 21
3 144 91 90
3 90 145 144
3 142 186 187
3 187 164 142
3 188 189 190
3 190 191 188
3 142 189 188
3 188 186 142
3 191 190 164
3 164 187 191
3 167 166 192
3 192 155 167
3 193 190 189
3 189 141 193
3 189 142 141
3 194 164 190
3 141 140 155
3 155 192 141
3 192 193 141
3 164 194 101
3 101 52 164
3 102 195 165
3 165 55 102
3 190 193 195
3 195 194 190
3 186 196 197
3 197 187 186
3 191 198 199
3 199 188 191
3 187 197 198
3 198 191 187
3 188 199 196
3 196 186 188
3 197 196 200
3 200 201 197
3 199 198 202
3 202 203 199
3 198 197 201
3 201 202 198
3 196 199 203
3 203 200 196
3 194 195 204
3 204 205 194
3 102 101 206
3 206 207 102
3 194 205 206
3 206 101 194
3 102 207 204
3 204 195 102
3 204 169 168
3 168 205 204
3 205 168 171
3 171 206 205
3 206 171 170
3 170 207 206
3 207 170 169
3 169 204 207
3 149 117 116
3 116 147 149
3 151 118 117
3 117 149 151
3 153 119 118
3 118 151 153
3 68 119 153
3 153 152 68
3 147 116 91
3 91 144 147
3 90 21 139
3 139 145 90
3 166 165 195
3 195 192 166
3 193 192 195
3 203 202 201
3 201 200 203
