ply
format ascii 1.0
comment Created by Blender 2.79 (sub 0) - www.blender.org, source file: 'pyramids.obj'
element vertex 8
property float x
property float y
property float z
property float nx
property float ny
property float nz
element face 6
property list uchar uint vertex_indices
end_header
-23.837584 -23.837584 -1.789401 -0.693289 -0.693289 -0.196570
-19.615896 -19.615896 1.789394 -0.268014 -0.268014 0.925352
-19.615896 19.615896 1.789400 -0.268014 0.268014 0.925352
-23.837584 23.837584 -1.789393 -0.693289 0.693289 -0.196570
19.615896 19.615896 1.789400 0.268014 0.268014 0.925352
23.837584 23.837584 -1.789393 0.693289 0.693289 -0.196570
19.615896 -19.615896 1.789394 0.268014 -0.268014 0.925352
23.837584 -23.837584 -1.789401 0.693289 -0.693289 -0.196570
4 0 1 2 3
4 3 2 4 5
4 5 4 6 7
4 1 0 7 6
4 7 0 3 5
4 4 2 1 6
